<?xml version="1.0" encoding="UTF-8" standalone="no"?> <svg height="625pt" viewBox="-106 -19 625 625.33365" width="625pt" xmlns="http://www.w3.org/2000/svg"><path d="m35.898438 586.25h176.242187c22.878906 0 41.496094-18.320312 41.496094-40.835938v-186.902343c-.003907-13.125-7.101563-25.21875-18.550781-31.632813-.167969-.089844-.34375-.183594-.519532-.265625l-99.617187-49.097656v-.117187c.453125 0 .910156.019531 1.363281.019531 33.304688-.035157 64.792969-15.21875 85.554688-41.261719 20.765624-26.042969 28.558593-60.117188 21.171874-92.597656l38.34375-24.03125 24.988282 1.996094c4.304687.34375 8.425781-1.808594 10.601562-5.535157l12.03125-20.589843 19.351563.039062h.019531c3.960938 0 7.625-2.082031 9.65625-5.480469l12.070312-20.210937 18.136719.550781c5.421875.171875 10.191407-3.558594 11.332031-8.859375l8.121094-37.433594c1.203125-5.550781-1.921875-11.125-7.285156-12.996094l-.3125-.109374c-.410156-.140626-.824219-.261719-1.246094-.355469l-45.757812-10.269531c-2.890625-.648438-5.921875-.132813-8.4375 1.445312l-135.109375 84.675781c-36.40625-32.757812-90.109375-37.445312-131.644531-11.492187-37.71875 23.617187-57.414063 67.699218-49.832032 111.554687 7.585938 43.851563 40.933594 78.765625 84.394532 88.351563v3.015625l-98.988282 48.78125c-.175781.085937-.347656.175781-.519531.273437-11.449219 6.410156-18.546875 18.503906-18.550781 31.628906v186.90625c0 22.515626 18.617187 40.835938 41.496094 40.835938zm87.804687-421.828125c-6.210937 0-11.242187 5.039063-11.242187 11.246094v24.078125c-11.074219-4.714844-17.308594-16.5625-14.917969-28.359375 2.386719-11.792969 12.746093-20.28125 24.777343-20.3125 1.925782 0 3.839844.21875 5.714844.65625 9.996094 2.289062 17.625 10.375 19.328125 20.484375 1.707031 10.105468-2.847656 20.25-11.535156 25.691406-.289063.179688-.585937.328125-.878906.503906v-22.742187c0-6.207031-5.035157-11.246094-11.246094-11.246094zm228.96875-141.199219 30.675781 6.882813-3.777344 17.421875-15.398437-.46875c-4.078125-.121094-7.902344 1.980468-9.996094 5.476562l-12.171875 20.386719-19.421875-.03125h-.019531c-3.996094 0-7.691406 2.121094-9.707031 5.574219l-11.722657 20.070312-21.667968-1.730468c-2.410156-.191407-4.820313.394531-6.871094 1.683593l-37.015625 23.203125c-1.929687-4.171875-4.117187-8.21875-6.546875-12.117187-1.335938-2.136719-2.761719-4.1875-4.222656-6.203125zm-290.382813 190.867188c-25.507812-40.789063-13.183593-94.53125 27.550782-120.128906 31.492187-19.789063 72.070312-17.410157 101.039062 5.914062 28.96875 23.332031 39.933594 62.46875 27.3125 97.453125-12.621094 34.988281-46.054687 58.109375-83.242187 57.566406v-32.304687c23.3125-6.347656 38.242187-29.078125 34.796875-52.992188-3.441406-23.917968-24.171875-41.511718-48.324219-41.027344-24.160156.484376-44.167969 18.902344-46.640625 42.933594-2.480469 24.035156 13.34375 46.148438 36.890625 51.550782.265625.058593.523437.105468.789063.15625v28.425781c-20.816407-5.832031-38.707032-19.21875-50.171876-37.546875zm-45.394531 144.421875c.003907-4.890625 2.601563-9.410157 6.824219-11.867188l100.296875-49.4375 100.304687 49.4375c4.222657 2.457031 6.820313 6.976563 6.824219 11.867188v186.902343c-.195312 10.308594-8.695312 18.511719-19.003906 18.34375h-176.242187c-10.308594.167969-18.808594-8.035156-19.003907-18.34375zm0 0"/><path d="m124.015625 429.96875c21.714844 0 39.378906-17.390625 39.378906-38.769531 0-21.378907-17.664062-38.769531-39.378906-38.769531-21.707031 0-39.375 17.390624-39.375 38.769531 0 21.378906 17.667969 38.769531 39.375 38.769531zm0-55.046875c8.914063.332031 15.902344 7.765625 15.683594 16.679687-.21875 8.910157-7.5625 15.992188-16.476563 15.886719-8.917968-.109375-16.089844-7.367187-16.09375-16.285156.179688-9.148437 7.738282-16.433594 16.886719-16.28125zm0 0"/><path d="m51.234375 516.777344h144.941406c6.207031 0 11.242188-5.03125 11.242188-11.246094 0-6.207031-5.035157-11.246094-11.242188-11.246094h-144.941406c-6.210937 0-11.246094 5.039063-11.246094 11.246094 0 6.214844 5.035157 11.246094 11.246094 11.246094zm0 0"/><path d="m51.234375 470.546875h144.941406c6.207031 0 11.242188-5.03125 11.242188-11.246094 0-6.207031-5.035157-11.246093-11.242188-11.246093h-144.941406c-6.210937 0-11.246094 5.039062-11.246094 11.246093 0 6.214844 5.035157 11.246094 11.246094 11.246094zm0 0"/></svg>